<svg xmlns="http://www.w3.org/2000/svg">
  <symbol id="Facebook" viewBox="0 0 13 13">
    <path
      d="M7.4499 7.09707H8.7624L9.2874 4.99707H7.4499V3.94707C7.4499 3.40632 7.4499 2.89707 8.4999 2.89707H9.2874V1.13307C9.11625 1.1105 8.46998 1.05957 7.78748 1.05957C6.3621 1.05957 5.3499 1.9295 5.3499 3.52707V4.99707H3.7749V7.09707H5.3499V11.5596H7.4499V7.09707Z"/>
  </symbol>
  <symbol id="Twitter" viewBox="0 0 13 13">
    <path
      d="M10.2195 1.58447H11.8296L8.31215 5.5876L12.4502 11.0345H9.2099L6.67257 7.73065L3.7688 11.0345H2.15705L5.91972 6.7531L1.9502 1.58447H5.2724L7.56665 4.60427L10.2195 1.58447ZM9.65457 10.0748H10.5471L4.7873 2.49377H3.8297L9.65457 10.0748Z"
    />
  </symbol>
  <symbol id="Whatsapp" viewBox="0 0 14 13">
    <path
      d="M7.93897 1.39491L7.63972 1.35291C6.74036 1.22305 5.82261 1.35152 4.99348 1.72333C4.16434 2.09514 3.45797 2.69498 2.95672 3.45291C2.4234 4.1774 2.10548 5.03775 2.03953 5.93495C1.97359 6.83214 2.16231 7.72973 2.58397 8.52441C2.62712 8.60405 2.65399 8.69149 2.663 8.78163C2.67202 8.87177 2.663 8.96279 2.63647 9.04941C2.42122 9.78966 2.22172 10.5352 2.01172 11.3174L2.27422 11.2387C2.98297 11.0497 3.69172 10.8607 4.40047 10.6874C4.55006 10.6563 4.70555 10.6709 4.84672 10.7294C5.4826 11.0397 6.1775 11.2105 6.88479 11.2302C7.59209 11.2498 8.29541 11.118 8.94755 10.8435C9.59969 10.5689 10.1856 10.1581 10.6659 9.63852C11.1462 9.11894 11.5098 8.50263 11.7323 7.83096C11.9548 7.15929 12.031 6.44779 11.9559 5.74422C11.8808 5.04065 11.6561 4.36129 11.2968 3.75172C10.9376 3.14215 10.4521 2.61648 9.87292 2.20998C9.29377 1.80349 8.63436 1.52558 7.93897 1.39491ZM9.26197 8.28291C9.07116 8.45374 8.83848 8.57095 8.58764 8.62259C8.33679 8.67424 8.07674 8.65847 7.83397 8.57691C6.73386 8.26714 5.77944 7.5769 5.14072 6.62916C4.89674 6.29396 4.70061 5.92643 4.55797 5.53716C4.48072 5.31129 4.46679 5.06858 4.51769 4.83536C4.56859 4.60213 4.68238 4.3873 4.84672 4.21416C4.92672 4.11205 5.03562 4.03641 5.15923 3.99708C5.28284 3.95775 5.41542 3.95656 5.53972 3.99366C5.64472 4.01991 5.71822 4.17216 5.81272 4.28766C5.88937 4.50448 5.97914 4.71658 6.08047 4.92291C6.15734 5.02818 6.18945 5.15958 6.16977 5.28843C6.1501 5.41729 6.08025 5.53313 5.97547 5.61066C5.73922 5.82066 5.77597 5.99391 5.94397 6.23016C6.31538 6.76522 6.82786 7.18683 7.42447 7.44816C7.59247 7.52166 7.71847 7.53741 7.82872 7.36416C7.87597 7.29591 7.93897 7.23816 7.99147 7.17516C8.29597 6.79191 8.20147 6.79716 8.68447 7.00716C8.83829 7.07173 8.98739 7.14733 9.13072 7.23291C9.27247 7.31691 9.48772 7.40616 9.51922 7.53216C9.54953 7.66885 9.54155 7.81126 9.49616 7.94371C9.45078 8.07616 9.36974 8.19353 9.26197 8.28291Z"
    />
  </symbol>
  <symbol id="Messenger" viewBox="0 0 13 13">
    <path
      d="M6.80078 1.88965C9.75863 1.88965 12.0508 4.05632 12.0508 6.98215C12.0508 9.90797 9.75811 12.0746 6.80078 12.0746C6.2874 12.076 5.77619 12.0082 5.28091 11.873C5.18788 11.8475 5.08888 11.8547 5.00056 11.8935L3.95843 12.3534C3.8955 12.3812 3.8267 12.3932 3.75808 12.3882C3.68946 12.3831 3.62312 12.3614 3.56489 12.3247C3.50666 12.288 3.45834 12.2376 3.42415 12.1779C3.38997 12.1182 3.37098 12.051 3.36886 11.9822L3.34051 11.0477C3.33855 10.9909 3.32501 10.935 3.30073 10.8836C3.27645 10.8321 3.24193 10.7862 3.19928 10.7485C2.17816 9.835 1.55078 8.51305 1.55078 6.98215C1.55078 4.05632 3.84293 1.88965 6.80078 1.88965ZM3.64816 8.47157C3.50011 8.70625 3.78886 8.97085 4.00988 8.80285L5.66626 7.546C5.72092 7.50473 5.78755 7.48241 5.85604 7.48241C5.92454 7.48241 5.99117 7.50473 6.04583 7.546L7.27223 8.46475C7.35927 8.53012 7.45893 8.57673 7.56489 8.60165C7.67086 8.62656 7.78084 8.62924 7.88789 8.60951C7.99495 8.58977 8.09675 8.54806 8.18687 8.487C8.27698 8.42594 8.35347 8.34686 8.41148 8.25475L9.95341 5.80825C10.1015 5.57305 9.81271 5.30845 9.59168 5.47592L7.93531 6.73382C7.88064 6.77509 7.81401 6.79742 7.74552 6.79742C7.67702 6.79742 7.6104 6.77509 7.55573 6.73382L6.32881 5.81507C6.24178 5.74979 6.14217 5.70325 6.03625 5.67838C5.93034 5.65352 5.82042 5.65086 5.71344 5.67059C5.60645 5.69033 5.50471 5.73201 5.41463 5.79302C5.32456 5.85403 5.2481 5.93304 5.19008 6.02507L3.64816 8.47157Z"
    />
  </symbol>
  <symbol id="Telegram" viewBox="0 0 13 13">
    <path
      d="M11.5771 1.12054L0.414109 5.4475C-0.0351108 5.64901 -0.187049 6.05253 0.305532 6.27152L3.16933 7.18633L10.0936 2.88486C10.4717 2.61482 10.8587 2.68682 10.5257 2.98388L4.57865 8.39635L4.39184 10.6869C4.56487 11.0406 4.88169 11.0422 5.08379 10.8664L6.72912 9.30153L9.54702 11.4225C10.2015 11.812 10.5576 11.5607 10.6984 10.8468L12.5467 2.04971C12.7386 1.17104 12.4114 0.783881 11.5771 1.12054Z"
    />
  </symbol>
</svg>
